<?xml version="1.0" encoding="UTF-8" standalone="no"?>
<!-- Created with Inkscape (http://www.inkscape.org/) -->

<svg
   width="128"
   height="128"
   viewBox="0 0 33.866637 33.866667"
   version="1.1"
   id="svg1"
   inkscape:version="1.3 (0e150ed6c4, 2023-07-21)"
   sodipodi:docname="logo.svg"
   inkscape:export-filename="logo.png"
   inkscape:export-xdpi="96"
   inkscape:export-ydpi="96"
   xmlns:inkscape="http://www.inkscape.org/namespaces/inkscape"
   xmlns:sodipodi="http://sodipodi.sourceforge.net/DTD/sodipodi-0.dtd"
   xmlns:xlink="http://www.w3.org/1999/xlink"
   xmlns="http://www.w3.org/2000/svg"
   xmlns:svg="http://www.w3.org/2000/svg">
  <sodipodi:namedview
     id="namedview1"
     pagecolor="#ffffff"
     bordercolor="#666666"
     borderopacity="1.0"
     inkscape:showpageshadow="2"
     inkscape:pageopacity="0.0"
     inkscape:pagecheckerboard="0"
     inkscape:deskcolor="#d1d1d1"
     inkscape:document-units="mm"
     inkscape:zoom="4.6593369"
     inkscape:cx="63.957599"
     inkscape:cy="65.352647"
     inkscape:window-width="1844"
     inkscape:window-height="1058"
     inkscape:window-x="76"
     inkscape:window-y="1200"
     inkscape:window-maximized="1"
     inkscape:current-layer="layer1" />
  <defs
     id="defs1">
    <filter
       id="filter10076-6-0"
       inkscape:label="Desaturate"
       x="-0.0070422545"
       y="-0.0093934585"
       width="1.0140845"
       height="1.0187869"
       inkscape:menu="Color"
       inkscape:menu-tooltip="Render in shades of gray by reducing saturation to zero"
       color-interpolation-filters="sRGB">
      <feColorMatrix
         id="feColorMatrix10078-4-2"
         type="saturate"
         values="0" />
    </filter>
    <radialGradient
       inkscape:collect="always"
       xlink:href="#linearGradient6160-2-1"
       id="radialGradient18323"
       gradientUnits="userSpaceOnUse"
       gradientTransform="matrix(0.8471998,0,0,0.1737288,43.462341,81.045205)"
       cx="49.655331"
       cy="166.66661"
       fx="49.655331"
       fy="166.66661"
       r="59" />
    <linearGradient
       id="linearGradient6160-2-1">
      <stop
         id="stop6162-8-9"
         offset="0"
         style="stop-color:#000000;stop-opacity:1;" />
      <stop
         id="stop6164-8-6"
         offset="1"
         style="stop-color:#000000;stop-opacity:0;" />
    </linearGradient>
    <filter
       color-interpolation-filters="sRGB"
       inkscape:collect="always"
       x="-0.023281368"
       width="1.0465627"
       y="-0.12804752"
       height="1.256095"
       id="filter5749-9-2">
      <feGaussianBlur
         inkscape:collect="always"
         stdDeviation="0.85365014"
         id="feGaussianBlur5751-2-1" />
    </filter>
    <linearGradient
       inkscape:collect="always"
       xlink:href="#linearGradient3954-8-0"
       id="linearGradient18325"
       gradientUnits="userSpaceOnUse"
       gradientTransform="matrix(1.3782748,0,0,1.4166695,373.74695,313.02676)"
       x1="123.0005"
       y1="169.5625"
       x2="123.0005"
       y2="155.14841" />
    <linearGradient
       id="linearGradient3954-8-0">
      <stop
         style="stop-color:#b3b3b3;stop-opacity:1;"
         offset="0"
         id="stop3956-8-7" />
      <stop
         id="stop3962-6-3"
         offset="0.52879584"
         style="stop-color:#ffffff;stop-opacity:1;" />
      <stop
         style="stop-color:#c5c5c5;stop-opacity:1;"
         offset="1"
         id="stop3958-8-1" />
    </linearGradient>
    <linearGradient
       id="linearGradient3722-8-9">
      <stop
         style="stop-color:#ececec;stop-opacity:1;"
         offset="0"
         id="stop3724-3-0" />
      <stop
         style="stop-color:#404040;stop-opacity:1;"
         offset="1"
         id="stop3726-3-5" />
    </linearGradient>
    <linearGradient
       inkscape:collect="always"
       xlink:href="#linearGradient3611-8-7"
       id="linearGradient18329"
       gradientUnits="userSpaceOnUse"
       gradientTransform="matrix(1.3782748,0,0,1.4166695,373.74695,313.02676)"
       x1="122.0557"
       y1="160.3047"
       x2="122.0557"
       y2="169.5625" />
    <linearGradient
       id="linearGradient3611-8-7">
      <stop
         id="stop3613-0-7"
         offset="0"
         style="stop-color:#818584;stop-opacity:1;" />
      <stop
         style="stop-color:#ffffff;stop-opacity:1;"
         offset="0.5"
         id="stop3615-4-4" />
      <stop
         id="stop3617-7-0"
         offset="1"
         style="stop-color:#818584;stop-opacity:1;" />
    </linearGradient>
    <linearGradient
       inkscape:collect="always"
       xlink:href="#linearGradient4804-8-4"
       id="linearGradient18331"
       gradientUnits="userSpaceOnUse"
       gradientTransform="matrix(1.3782748,0,0,1.4166695,373.74695,313.02676)"
       x1="49.875"
       y1="165.22659"
       x2="196.125"
       y2="165.22659" />
    <linearGradient
       id="linearGradient4804-8-4"
       gradientUnits="userSpaceOnUse"
       x1="49.875"
       y1="165.22659"
       x2="196.125"
       y2="165.22659">
      <stop
         offset="0"
         style="stop-color:#6b6b6b;stop-opacity:1;"
         id="stop4806-9-7" />
      <stop
         offset="0.1716"
         style="stop-color:#d6d9df;stop-opacity:1;"
         id="stop4808-0-4" />
      <stop
         offset="0.30770001"
         style="stop-color:#737373;stop-opacity:1;"
         id="stop4810-6-8" />
      <stop
         offset="0.5"
         style="stop-color:#e1e4e7;stop-opacity:1;"
         id="stop4812-8-5" />
      <stop
         offset="0.74559999"
         style="stop-color:#818181;stop-opacity:1;"
         id="stop4814-7-8" />
      <stop
         offset="0.77539998"
         style="stop-color:#868d93;stop-opacity:1;"
         id="stop4816-9-2" />
      <stop
         offset="0.83310002"
         style="stop-color:#9b9da3;stop-opacity:1;"
         id="stop4818-0-6" />
      <stop
         offset="0.89039999"
         style="stop-color:#8e9198;stop-opacity:1;"
         id="stop4820-3-0" />
      <stop
         offset="0.9465"
         style="stop-color:#8f949a;stop-opacity:1;"
         id="stop4822-3-6" />
      <stop
         offset="1"
         style="stop-color:#adb0b5;stop-opacity:1;"
         id="stop4824-3-6" />
    </linearGradient>
    <radialGradient
       inkscape:collect="always"
       xlink:href="#linearGradient3954-8-0"
       id="radialGradient18333"
       gradientUnits="userSpaceOnUse"
       gradientTransform="matrix(2.7565499,0,0,1.3070752,-140.3496,298.66604)"
       cx="247.1255"
       cy="174.1265"
       fx="247.1255"
       fy="174.1265"
       r="9.8435001" />
    <linearGradient
       inkscape:collect="always"
       xlink:href="#linearGradient3954-8-0"
       id="linearGradient18335"
       gradientUnits="userSpaceOnUse"
       gradientTransform="matrix(1.3782748,0,0,1.6986167,373.74695,268.65502)"
       spreadMethod="reflect"
       x1="103.27697"
       y1="145.52136"
       x2="135.81474"
       y2="145.52136" />
    <linearGradient
       inkscape:collect="always"
       xlink:href="#linearGradient4838-5-0"
       id="linearGradient18339"
       gradientUnits="userSpaceOnUse"
       gradientTransform="matrix(2.7565499,0,0,2.7565499,-140.3496,58.365616)"
       x1="192"
       y1="132"
       x2="304"
       y2="132" />
    <linearGradient
       id="linearGradient4838-5-0">
      <stop
         id="stop4840-8-1"
         offset="0"
         style="stop-color:#9a9a9a;stop-opacity:1;" />
      <stop
         style="stop-color:#d0d0d0;stop-opacity:1;"
         offset="0.26439792"
         id="stop4846-79-0" />
      <stop
         style="stop-color:#e4e4e4;stop-opacity:1;"
         offset="0.52879584"
         id="stop4842-6-1" />
      <stop
         id="stop4848-0-3"
         offset="0.76439792"
         style="stop-color:#e2e2e2;stop-opacity:1;" />
      <stop
         id="stop4844-4-7"
         offset="1"
         style="stop-color:#acacac;stop-opacity:1;" />
    </linearGradient>
    <linearGradient
       inkscape:collect="always"
       xlink:href="#linearGradient7947-0-2"
       id="linearGradient18341"
       gradientUnits="userSpaceOnUse"
       gradientTransform="matrix(1.2981449,0,0,1.246059,383.46972,-503.69641)"
       x1="126.03124"
       y1="14"
       x2="166.95312"
       y2="110" />
    <linearGradient
       id="linearGradient7947-0-2"
       gradientUnits="userSpaceOnUse"
       x1="26"
       y1="69"
       x2="220"
       y2="69">
      <stop
         offset="0"
         style="stop-color:#2752c7;stop-opacity:1"
         id="stop7949-4-6" />
      <stop
         offset="1"
         style="stop-color:#118eb0;stop-opacity:1"
         id="stop7951-8-4" />
    </linearGradient>
    <linearGradient
       id="linearGradient4854-4-0">
      <stop
         style="stop-color:#ffffff;stop-opacity:1;"
         offset="0"
         id="stop4857-7-9" />
      <stop
         id="stop4010-9-9"
         offset="0.5"
         style="stop-color:#ffffff;stop-opacity:1;" />
      <stop
         style="stop-color:#ffffff;stop-opacity:0"
         offset="1"
         id="stop4859-3-4" />
    </linearGradient>
    <linearGradient
       inkscape:collect="always"
       xlink:href="#linearGradient6160-2-1"
       id="linearGradient18349"
       gradientUnits="userSpaceOnUse"
       x1="69"
       y1="35.035378"
       x2="69"
       y2="0.60519463" />
    <clipPath
       id="clipPath4024-1-8"
       clipPathUnits="userSpaceOnUse">
      <rect
         ry="0"
         width="112"
         height="88"
         id="rect4026-7-8"
         x="8"
         y="7.9999967"
         style="fill:#e20071;fill-opacity:1" />
    </clipPath>
    <filter
       color-interpolation-filters="sRGB"
       id="filter4046-8-6"
       inkscape:collect="always"
       x="-0.022077902"
       y="-0.028099148"
       width="1.0441558"
       height="1.0561983">
      <feGaussianBlur
         id="feGaussianBlur4048-9-0"
         stdDeviation="0.5"
         inkscape:collect="always" />
    </filter>
    <linearGradient
       id="linearGradient3623-5-6">
      <stop
         id="stop3625-4-7"
         offset="0"
         style="stop-color:#666666;stop-opacity:1;" />
      <stop
         id="stop3627-9-6"
         offset="1"
         style="stop-color:#ffffff;stop-opacity:0;" />
    </linearGradient>
    <linearGradient
       inkscape:collect="always"
       xlink:href="#linearGradient6160-2-1"
       id="linearGradient18353"
       gradientUnits="userSpaceOnUse"
       gradientTransform="matrix(2.1357792,0,0,2.0586713,403.82835,-308.42649)"
       x1="69.935677"
       y1="43.267174"
       x2="69.935677"
       y2="-145.81259" />
  </defs>
  <g
     inkscape:label="Ebene 1"
     inkscape:groupmode="layer"
     id="layer1">
    <path
       d="m 543.27477,553.24009 68.18049,-6.91193 c -16.54756,-3.79101 -41.4902,-6.20361 -69.39199,-6.20361 -28.0038,0 -53.02638,2.43101 -69.57119,6.24327 z"
       id="path3716-3-3"
       style="fill:url(#linearGradient18329);fill-opacity:1;filter:url(#filter10076-6-0)"
       inkscape:connector-curvature="0"
       transform="matrix(0.13779228,0,0,0.13779228,-57.545903,-43.396794)" />
    <rect
       rx="2.7045455"
       ry="2.7045455"
       y="100"
       x="40"
       height="16"
       width="88"
       id="rect3710-4-8"
       style="opacity:0.5;fill:url(#radialGradient18323);fill-opacity:1;fill-rule:evenodd;stroke:none;filter:url(#filter5749-9-2)"
       transform="matrix(0.3798313,0,0,0.19895925,-14.972494,10.261463)"
       inkscape:export-xdpi="90"
       inkscape:export-ydpi="90" />
    <path
       d="m 640.83044,539.96021 c 0,0 -51.84656,-7.13857 -97.55567,-7.13857 -45.70911,0 -97.55568,7.13857 -97.55568,7.13857 l 1.7766,3.98369 95.77908,9.29619 93.35607,-9.46336 z"
       id="path3712-5-5"
       style="fill:url(#linearGradient18325);fill-opacity:1;filter:url(#filter10076-6-0)"
       inkscape:connector-curvature="0"
       transform="matrix(0.13779228,0,0,0.13779228,-57.545903,-43.396794)" />
    <path
       d="m 442.48841,543.9439 c 0,0 37.95632,10.29353 100.78636,10.29353 62.83004,0 100.78636,-10.29353 100.78636,-10.29353 l -3.23069,-3.98369 c 0,0 -36.7393,9.62913 -97.55567,9.62913 -60.81638,0 -97.55568,-9.62913 -97.55568,-9.62913 z"
       id="path3718-5-8"
       style="fill:url(#linearGradient18331);fill-opacity:1;filter:url(#filter10076-6-0)"
       inkscape:connector-curvature="0"
       transform="matrix(0.13779228,0,0,0.13779228,-57.545903,-43.396794)" />
    <path
       d="m 570.41025,537.13679 c -6.94513,0 -7.10639,-23.74054 -7.10639,-23.74054 h -40.05543 c 0,0 -0.16127,23.74054 -7.10638,23.74054 0,0 11.83662,1.99186 27.13547,1.99186 15.29472,10e-4 27.13273,-1.99186 27.13273,-1.99186 z"
       id="path3720-7-3"
       style="fill:url(#radialGradient18333);fill-opacity:1;filter:url(#filter10076-6-0)"
       inkscape:connector-curvature="0"
       transform="matrix(0.13779228,0,0,0.13779228,-57.545903,-43.396794)" />
    <path
       d="m 523.24705,508.90398 c 0,0 -0.0634,11.02232 -1.78486,19.35064 5.00038,4.68989 12.90754,7.72194 21.81258,7.72194 8.90503,0 16.8122,-3.03205 21.81258,-7.72194 -1.72147,-8.32663 -1.78487,-19.35064 -1.78487,-19.35064 z"
       id="path3722-0-7"
       style="fill:url(#linearGradient18335);fill-opacity:1;filter:url(#filter10076-6-0)"
       inkscape:connector-curvature="0"
       transform="matrix(0.13779228,0,0,0.13779228,-57.545903,-43.396794)" />
    <rect
       ry="0"
       width="242.57639"
       height="190.59573"
       id="rect3726-1-3"
       x="419.23001"
       y="322.99438"
       style="fill:url(#linearGradient18339);fill-opacity:1;filter:url(#filter10076-6-0)"
       transform="matrix(0.13779228,0,0,0.13779228,-57.545903,-43.396794)" />
    <rect
       transform="matrix(0.13779228,0,0,-0.13779228,-57.545903,-43.396794)"
       x="441.58102"
       y="-488.3877"
       width="197.87437"
       height="148.81506"
       id="rect3734-9-7"
       style="fill:url(#linearGradient18341);filter:url(#filter10076-6-0)"
       ry="0" />
    <rect
       style="opacity:0.2;fill:none;stroke:url(#linearGradient18349);stroke-width:2.54545;stroke-miterlimit:4;stroke-dasharray:none;stroke-opacity:1;filter:url(#filter4046-8-6)"
       y="7.9999967"
       x="8"
       id="rect4020-2-1"
       height="88"
       width="112"
       ry="0"
       clip-path="url(#clipPath4024-1-8)"
       transform="matrix(0.29843887,0,0,0.29843887,-2.166753,-1.2781723)" />
    <rect
       ry="0"
       style="fill:none;stroke:url(#linearGradient18353);stroke-width:2.75655;stroke-miterlimit:4;stroke-dasharray:none;stroke-opacity:1;filter:url(#filter10076-6-0)"
       id="rect3901-3-0"
       height="146.72711"
       width="195.71503"
       y="-487.34372"
       x="442.66071"
       transform="matrix(0.13779228,0,0,-0.13779228,-57.545903,-43.396794)" />
    <path
       fill="none"
       stroke-width="0.0853301"
       stroke-linecap="butt"
       stroke-linejoin="miter"
       stroke="#ff0000"
       stroke-opacity="1"
       stroke-miterlimit="10"
       d="m 7.0659979,23.756167 0.076831,-0.05158 0.076831,-0.05166 0.076831,-0.05158 0.076831,-0.05166 0.076831,-0.05158 0.076831,-0.05166 0.076831,-0.05158 0.076831,-0.05191 0.076831,-0.05166 0.076831,-0.05158 0.076831,-0.05191 0.076831,-0.05166 0.076831,-0.05133 0.076831,-0.05158 0.1536615,-0.103829 0.076831,-0.05166 0.076831,-0.05158 0.076831,-0.05166 0.076831,-0.05158 0.076831,-0.05166 0.076831,-0.05158 0.076831,-0.05166 0.076831,-0.05191 0.076831,-0.05158 0.076831,-0.05166 0.076831,-0.05192 0.076831,-0.05158 0.076831,-0.05166 0.076831,-0.05158 0.076831,-0.05166 0.076831,-0.05191 0.076831,-0.05158 0.076831,-0.05166 0.1536615,-0.103163 0.076831,-0.05166 0.076831,-0.05158 0.076831,-0.05166 0.07683,-0.05192 0.07683,-0.05158 0.07683,-0.05166 0.07683,-0.05192 0.07683,-0.05133 0.07683,-0.05158 0.07683,-0.05192 0.07683,-0.05166 0.07683,-0.05192 0.07683,-0.05158 0.07683,-0.05166 0.07683,-0.05158 0.07683,-0.05166 0.07683,-0.05191 0.07683,-0.05158 0.07683,-0.05166 0.07683,-0.05158 0.07683,-0.05166 0.07683,-0.05191 0.07683,-0.05158 0.07683,-0.05166 0.07683,-0.05158 0.07683,-0.05166 0.07683,-0.05158 0.07683,-0.05192 0.07683,-0.05166 0.07683,-0.05158 0.07683,-0.05166 0.07683,-0.05158 0.07683,-0.05166 0.07683,-0.05158 0.07683,-0.05166 0.07683,-0.05191 0.07683,-0.05158 0.07683,-0.05191 0.07683,-0.05167 0.07683,-0.05158 0.07683,-0.05166 0.153662,-0.103163 0.07683,-0.052 0.153661,-0.103163 0.07683,-0.05166 0.07683,-0.05158 0.07683,-0.05192 0.07683,-0.05166 0.07683,-0.05158 0.07683,-0.05166 0.07683,-0.05158 0.07683,-0.05192 0.07683,-0.05166 0.07683,-0.05158 0.07683,-0.05166 0.07683,-0.05158 0.07683,-0.05166 0.153661,-0.103831 0.07683,-0.05133 0.07683,-0.05158 0.07683,-0.05192 0.07683,-0.05133 0.07683,-0.05166 0.07683,-0.05158 0.07683,-0.05192 0.07683,-0.05166 0.07683,-0.05192 0.07683,-0.05158 0.07683,-0.05166 0.07683,-0.05158 0.07683,-0.05166 0.07683,-0.05191 0.07683,-0.05158 0.07683,-0.05166 0.07683,-0.05158 0.07683,-0.05167 0.07683,-0.05191 0.07683,-0.05158 0.07683,-0.05167 0.153661,-0.103163 0.07683,-0.05166 0.07683,-0.05192 0.07683,-0.05158 0.07683,-0.05166 0.07683,-0.05158 0.07683,-0.05166 0.07683,-0.05158 0.07683,-0.05191 0.07683,-0.052 0.07683,-0.05125 0.07683,-0.05166 0.07683,-0.05192 0.07683,-0.05158 0.07683,-0.05166 0.07683,-0.05158 0.07683,-0.05166 0.07683,-0.05191 0.07683,-0.05158 0.07683,-0.05166 0.07683,-0.05158 0.07683,-0.05166 0.07683,-0.05158 0.07683,-0.05192 0.07683,-0.05166 0.07683,-0.05158 0.07683,-0.05167 0.07683,-0.05158 0.07683,-0.05192 0.07683,-0.05166 0.07683,-0.05158 0.07683,-0.05167 0.07683,-0.05192 0.07683,-0.05158 0.07683,-0.05166 0.07683,-0.05158 0.07683,-0.05166 0.07683,-0.05158 0.07683,-0.05166 0.07683,-0.05158 0.07683,-0.05225 0.07683,-0.05133 0.153661,-0.103163 0.07683,-0.052 0.153661,-0.103163 0.07683,-0.05166 0.07683,-0.05158 0.07683,-0.05191 0.07683,-0.05167 0.07683,-0.05158 0.07683,-0.05166 0.07683,-0.05158 0.07683,-0.05192 0.07683,-0.05166 0.07683,-0.05191 0.07683,-0.05158 0.07683,-0.05133 0.07683,-0.05192 0.07683,-0.05166 0.07683,-0.05158 0.07683,-0.05166 0.07683,-0.05158 0.07683,-0.05192 0.07683,-0.05167 0.07683,-0.05191 0.07683,-0.05133 0.07683,-0.05158 0.07683,-0.05166 0.07683,-0.05191 0.07683,-0.05158 0.07683,-0.05191 0.07683,-0.05133 0.07683,-0.05167 0.07683,-0.05191 0.07683,-0.05158 0.07683,-0.05166 0.07683,-0.05158 0.07683,-0.05166 0.07683,-0.05192 0.07683,-0.05158 0.07683,-0.05166 0.153662,-0.103163 0.07683,-0.05167 0.07683,-0.05191 0.07683,-0.05158 0.07683,-0.052 0.153661,-0.103163 0.07683,-0.05166 0.07683,-0.05158 0.07683,-0.05166 0.07683,-0.05158 0.07683,-0.05167 0.07683,-0.05192 0.07683,-0.05158 0.07683,-0.05192 0.07683,-0.05133 0.07683,-0.05166 0.07683,-0.05158 0.07683,-0.05192 0.07683,-0.05166 0.07683,-0.05192 0.07683,-0.05133 0.07683,-0.05158 0.07683,-0.05192 0.07683,-0.05166 0.07683,-0.05158 0.07683,-0.05166 0.07683,-0.05158 0.07683,-0.05192 0.07683,-0.05167 0.07683,-0.05192 0.07683,-0.05158 0.07683,-0.05133 0.07683,-0.05191 0.07683,-0.05166 0.07683,-0.05158 0.07683,-0.05191 0.07683,-0.05166 0.07683,-0.05158 0.07683,-0.05166 0.07683,-0.05158 0.07683,-0.05166 0.153662,-0.103163 0.07683,-0.052 0.07683,-0.05158 0.07683,-0.05192 0.07683,-0.05133 0.07683,-0.05158 0.07683,-0.05191 0.07683,-0.05166 0.07683,-0.05158"
       id="path2"
       style="stroke-width:0.5;stroke-dasharray:none" />
    <path
       fill="none"
       stroke-width="0.0853301"
       stroke-linecap="butt"
       stroke-linejoin="miter"
       stroke="#00ff00"
       stroke-opacity="1"
       stroke-miterlimit="10"
       d="m 7.0659979,23.756167 0.076831,-0.07717 0.076831,-0.07708 0.076831,-0.07716 0.076831,-0.07708 0.076831,-0.07683 0.1536615,-0.154327 0.076831,-0.07742 0.076831,-0.07708 0.1536614,-0.154329 0.076831,-0.07708 0.076831,-0.07683 0.076831,-0.07717 0.076831,-0.07708 0.076831,-0.0775 0.076831,-0.07708 0.076831,-0.07716 0.076831,-0.07708 0.076831,-0.07716 0.076831,-0.07683 0.076831,-0.07716 0.076831,-0.07708 0.076831,-0.07742 0.1536614,-0.154329 0.076831,-0.07708 0.076831,-0.07716 0.076831,-0.07708 0.076831,-0.07716 0.076831,-0.07683 0.076831,-0.07741 0.076831,-0.07716 0.076831,-0.07708 0.1536615,-0.154329 0.076831,-0.07683 0.076831,-0.07708 0.076831,-0.07716 0.07683,-0.07741 0.07683,-0.07717 0.07683,-0.07708 0.07683,-0.07716 0.07683,-0.07683 0.07683,-0.07708 0.153662,-0.154329 0.07683,-0.07741 0.07683,-0.07708 0.153662,-0.154329 0.07683,-0.07708 0.07683,-0.07716 0.07683,-0.07708 0.153661,-0.154329 0.07683,-0.07708 0.07683,-0.07716 0.07683,-0.07708 0.153661,-0.154329 0.07683,-0.07708 0.07683,-0.07683 0.07683,-0.07741 0.153662,-0.154329 0.07683,-0.07708 0.07683,-0.07716 0.07683,-0.07683 0.07683,-0.07716 0.07683,-0.07708 0.07683,-0.07741 0.153662,-0.154328 0.07683,-0.07708 0.07683,-0.07716 0.07683,-0.07708 0.07683,-0.07683 0.07683,-0.07716 0.07683,-0.07741 0.07683,-0.07716 0.07683,-0.07708 0.153662,-0.154327 0.07683,-0.07708 0.07683,-0.07716 0.07683,-0.07708 0.15366,-0.154327 0.07683,-0.07708 0.07683,-0.07716 0.07683,-0.07708 0.153661,-0.154327 0.07683,-0.07683 0.07683,-0.07766 0.07683,-0.07716 0.07683,-0.07683 0.07683,-0.07716 0.07683,-0.07708 0.07683,-0.07683 0.07683,-0.07716 0.07683,-0.07708 0.07683,-0.0775 0.07683,-0.07708 0.07683,-0.07716 0.07683,-0.07708 0.153661,-0.154329 0.07683,-0.07708 0.07683,-0.07716 0.07683,-0.07708 0.153661,-0.154328 0.07683,-0.07708 0.07683,-0.07716 0.07683,-0.07708 0.153662,-0.154329 0.07683,-0.07708 0.07683,-0.07716 0.07683,-0.07708 0.153661,-0.154329 0.07683,-0.07708 0.07683,-0.07683 0.07683,-0.07716 0.07683,-0.07775 0.07683,-0.07708 0.07683,-0.07683 0.07683,-0.07716 0.07683,-0.07708 0.153662,-0.154329 0.07683,-0.07708 0.07683,-0.07716 0.07683,-0.07708 0.15366,-0.154328 0.07683,-0.07708 0.07683,-0.07716 0.07683,-0.07708 0.153661,-0.154329 0.07683,-0.07708 0.07683,-0.07716 0.07683,-0.07708 0.153661,-0.154329 0.07683,-0.07708 0.07683,-0.07716 0.07683,-0.07742 0.07683,-0.07716 0.07683,-0.07708 0.07683,-0.07683 0.07683,-0.07716 0.07683,-0.07708 0.07683,-0.07683 0.07683,-0.07716 0.07683,-0.07775 0.07683,-0.07683 0.07683,-0.07708 0.153661,-0.154328 0.07683,-0.07708 0.07683,-0.07716 0.07683,-0.07708 0.153662,-0.154329 0.07683,-0.07708 0.07683,-0.07716 0.07683,-0.07708 0.153661,-0.154329 0.07683,-0.07708 0.07683,-0.07741 0.07683,-0.07716 0.07683,-0.07683 0.07683,-0.077166 0.07683,-0.07708 0.07683,-0.077164 0.07683,-0.07708 0.07683,-0.077165 0.07683,-0.077413 0.07683,-0.077164 0.07683,-0.07708 0.07683,-0.076831 0.15366,-0.154329 0.07683,-0.07708 0.07683,-0.077164 0.07683,-0.077413 0.07683,-0.076832 0.07683,-0.077164 0.07683,-0.07708 0.153662,-0.1543272 0.07683,-0.077082 0.07683,-0.077164 0.07683,-0.07708 0.153661,-0.1543289 0.07683,-0.07708 0.07683,-0.077164 0.07683,-0.07708 0.153662,-0.1543272 0.07683,-0.077415 0.07683,-0.07708 0.153662,-0.154329 0.07683,-0.076831 0.07683,-0.07708 0.07683,-0.077164 0.07683,-0.07708 0.07683,-0.077498 0.07683,-0.07708 0.07683,-0.077164 0.07683,-0.076831 0.07683,-0.07708 0.15366,-0.1543289 0.07683,-0.07708 0.07683,-0.077413 0.07683,-0.076831 0.15366,-0.1543289 0.07683,-0.07708 0.07683,-0.077164 0.07683,-0.07708 0.07683,-0.077164 0.07683,-0.077415 0.07683,-0.077164 0.07683,-0.07708 0.07683,-0.077164 0.07683,-0.076831 0.07683,-0.077165 0.07683,-0.07708 0.07683,-0.077164 0.07683,-0.077413 0.07683,-0.077165 0.07683,-0.07708 0.07683,-0.077164 0.07683,-0.076831 0.07683,-0.07708 0.153662,-0.1543289 0.07683,-0.077413 0.07683,-0.07708 0.07683,-0.077165 0.07683,-0.076831 0.07683,-0.077164 0.07683,-0.07708 0.07683,-0.077164 0.07683,-0.07708"
       id="path3"
       style="fill:#000000;fill-opacity:1;stroke-width:0.5;stroke-dasharray:none" />
    <path
       fill="none"
       stroke-width="0.0853301"
       stroke-linecap="butt"
       stroke-linejoin="miter"
       stroke="#0000ff"
       stroke-opacity="1"
       stroke-miterlimit="10"
       d="m 7.0659979,23.756167 0.1536615,-0.08466 0.076831,-0.04258 0.2304922,-0.126996 0.076831,-0.04225 0.076831,-0.04266 0.076831,-0.04258 0.1536614,-0.08466 0.076831,-0.04258 0.2304922,-0.126996 0.076831,-0.04258 0.076831,-0.04233 0.076831,-0.04258 0.076831,-0.04233 0.076831,-0.04267 0.076831,-0.042 0.076831,-0.04258 0.076831,-0.04233 0.076831,-0.04258 0.076831,-0.04233 0.076831,-0.04266 0.076831,-0.04233 0.076831,-0.04225 0.076831,-0.04266 0.076831,-0.04233 0.076831,-0.04225 0.076831,-0.04267 0.1536615,-0.08466 0.076831,-0.04258 0.1536615,-0.08466 0.076831,-0.04225 0.076831,-0.04267 0.07683,-0.04258 0.15366,-0.08466 0.07683,-0.04258 0.07683,-0.04208 0.07683,-0.04258 0.153662,-0.08466 0.153661,-0.08516 0.153662,-0.08466 0.07683,-0.04258 0.153662,-0.08467 0.07683,-0.04266 0.07683,-0.04225 0.07683,-0.04233 0.07683,-0.04266 0.07683,-0.04225 0.07683,-0.04266 0.07683,-0.04233 0.07683,-0.04225 0.07683,-0.04233 0.07683,-0.04266 0.07683,-0.04233 0.07683,-0.04258 0.153661,-0.08466 0.07683,-0.04225 0.07683,-0.04233 0.07683,-0.04266 0.07683,-0.04258 0.153662,-0.08466 0.07683,-0.04258 0.230492,-0.126996 0.153662,-0.08516 0.153661,-0.08466 0.07683,-0.04266 0.07683,-0.04225 0.07683,-0.04233 0.07683,-0.04266 0.07683,-0.04225 0.07683,-0.04233 0.07683,-0.04266 0.07683,-0.04225 0.07683,-0.04233 0.07683,-0.04267 0.07683,-0.04233 0.07683,-0.04225 0.07683,-0.04233 0.07683,-0.04292 0.230492,-0.126996 0.07683,-0.04258 0.07683,-0.042 0.07683,-0.04266 0.07683,-0.04233 0.07683,-0.04258 0.07683,-0.04233 0.07683,-0.04258 0.153662,-0.08466 0.07683,-0.04258 0.153662,-0.08466 0.07683,-0.04258 0.153661,-0.08466 0.07683,-0.04258 0.153661,-0.08466 0.07683,-0.04258 0.07683,-0.04233 0.07683,-0.04266 0.07683,-0.04233 0.07683,-0.04225 0.07683,-0.04267 0.07683,-0.04233 0.07683,-0.04225 0.153662,-0.08467 0.07683,-0.04291 0.230492,-0.126996 0.07683,-0.04258 0.153662,-0.08466 0.07683,-0.04258 0.153663,-0.08466 0.07683,-0.04258 0.07683,-0.04233 0.07683,-0.04258 0.15366,-0.08466 0.07683,-0.04258 0.153661,-0.08466 0.07683,-0.04258 0.153661,-0.08466 0.07683,-0.04266 0.07683,-0.04225 0.07683,-0.04233 0.07683,-0.04266 0.07683,-0.04258 0.153661,-0.08466 0.07683,-0.04225 0.153662,-0.08466 0.07683,-0.04267 0.07683,-0.04258 0.153662,-0.08466 0.07683,-0.04258 0.153662,-0.08466 0.07683,-0.04258 0.153662,-0.08466 0.07683,-0.04258 0.153661,-0.08466 0.07683,-0.04258 0.153661,-0.08466 0.07683,-0.04258 0.07683,-0.04266 0.07683,-0.04225 0.153663,-0.08466 0.07683,-0.04266 0.07683,-0.04225 0.07683,-0.04233 0.07683,-0.04267 0.07683,-0.04225 0.07683,-0.04267 0.07683,-0.04233 0.07683,-0.04225 0.07683,-0.04233 0.07683,-0.04267 0.07683,-0.04233 0.07683,-0.04225 0.07683,-0.04267 0.07683,-0.04233 0.07683,-0.04225 0.07683,-0.04267 0.153662,-0.08466 0.07683,-0.04258 0.07683,-0.04233 0.07683,-0.04258 0.153661,-0.08466 0.07683,-0.04258 0.153661,-0.08466 0.07683,-0.04258 0.07683,-0.04233 0.07683,-0.04266 0.07683,-0.04225 0.07683,-0.04266 0.07683,-0.04233 0.07683,-0.04225 0.153661,-0.08466 0.07683,-0.04258 0.07683,-0.04266 0.153661,-0.08466 0.07683,-0.04225 0.07683,-0.04266 0.07683,-0.04233 0.07683,-0.04225 0.07683,-0.04266 0.07683,-0.04233 0.07683,-0.04225 0.07683,-0.04266 0.153661,-0.08466 0.07683,-0.04258 0.153664,-0.08466 0.153659,-0.08516 0.307323,-0.169328 0.07683,-0.04258 0.07683,-0.04233 0.07683,-0.04258 0.07683,-0.04233 0.07683,-0.04266 0.07683,-0.04225 0.153661,-0.08466 0.07683,-0.04266 0.07683,-0.04225 0.07683,-0.04266 0.07683,-0.04233 0.07683,-0.04258 0.07683,-0.042 0.07683,-0.04266 0.07683,-0.04225 0.07683,-0.04233 0.07683,-0.04266"
       id="path4"
       style="stroke-width:0.5;stroke-dasharray:none" />
  </g>
</svg>
